<svg xmlns="http://www.w3.org/2000/svg" viewBox="0 0 572.01 258.44">
  <path d="M457.29,380.42h9.3c3.09,0,5.27-.57,6.57-1.72a6.14,6.14,0,0,0,1.93-4.84A6.48,6.48,0,0,0,474,370a5.4,5.4,0,0,0-3-2.13,20.53,20.53,0,0,0-4.44-.32h-9.21Zm-4.78,18.92v-36h13.6a34,34,0,0,1,5.48.34,11.06,11.06,0,0,1,4.45,1.68,8.88,8.88,0,0,1,2.89,3.47,11.69,11.69,0,0,1-1.83,12.66q-2.93,3.18-10.57,3.18h-9.24v14.69Z" transform="translate(-95.85 -147.09)" fill="#fff"/>
  <path d="M491.58,379.21h10.23a15.33,15.33,0,0,0,5.1-.67,5.35,5.35,0,0,0,2.78-2.17,5.82,5.82,0,0,0,1-3.23,5.38,5.38,0,0,0-1.85-4.2c-1.23-1.1-3.18-1.65-5.83-1.65H491.58Zm-4.78,20.13v-36h16a21.31,21.31,0,0,1,7.31,1,8,8,0,0,1,4,3.42,10.23,10.23,0,0,1,1.5,5.43,9,9,0,0,1-2.49,6.46q-2.48,2.63-7.65,3.34a12.12,12.12,0,0,1,2.88,1.79,24.67,24.67,0,0,1,3.94,4.8l6.22,9.81h-6l-4.76-7.5c-1.38-2.17-2.53-3.82-3.43-5a10.82,10.82,0,0,0-2.42-2.41,7.37,7.37,0,0,0-2.17-.95,14.73,14.73,0,0,0-2.65-.17h-5.52v16Z" transform="translate(-95.85 -147.09)" fill="#fff"/>
  <path d="M525.37,381.89q0,6.5,3.5,10.24a12.24,12.24,0,0,0,17.63,0q3.46-3.76,3.47-10.71a18.41,18.41,0,0,0-1.48-7.67,11.43,11.43,0,0,0-4.35-5.07,11.82,11.82,0,0,0-6.42-1.8,12.19,12.19,0,0,0-8.7,3.47c-2.43,2.32-3.65,6.17-3.65,11.58m-4.93-.08q0-9,4.82-14a16.38,16.38,0,0,1,12.44-5.06,17.21,17.21,0,0,1,9,2.38,15.46,15.46,0,0,1,6.11,6.64,21.49,21.49,0,0,1,2.1,9.65,21.25,21.25,0,0,1-2.21,9.79,15.14,15.14,0,0,1-6.27,6.54,17.92,17.92,0,0,1-8.75,2.22,17,17,0,0,1-9.09-2.46,15.68,15.68,0,0,1-6.07-6.7A20.14,20.14,0,0,1,520.44,381.81Z" transform="translate(-95.85 -147.09)" fill="#fff"/>
  <path d="M566.91,395.11h7.68a18.7,18.7,0,0,0,5.58-.66,8.11,8.11,0,0,0,3.23-1.87A11.5,11.5,0,0,0,586,388a22.36,22.36,0,0,0,1-6.95q0-5.65-1.85-8.7a9.38,9.38,0,0,0-4.5-4.08,18.66,18.66,0,0,0-6.17-.74h-7.55Zm-4.78,4.23v-36h12.41a30.39,30.39,0,0,1,6.41.51,12.33,12.33,0,0,1,5.28,2.58,14.58,14.58,0,0,1,4.26,6.16,23.93,23.93,0,0,1,1.42,8.56,25.06,25.06,0,0,1-1,7.27,17.55,17.55,0,0,1-2.45,5.25,12.24,12.24,0,0,1-7.58,5.07,24.65,24.65,0,0,1-5.79.62Z" transform="translate(-95.85 -147.09)" fill="#fff"/>
  <path d="M623.44,363.32h4.78v20.8a24.88,24.88,0,0,1-1.23,8.63,10.6,10.6,0,0,1-4.43,5.19,15.66,15.66,0,0,1-8.4,2,17.2,17.2,0,0,1-8.25-1.74,9.94,9.94,0,0,1-4.59-5.05,24.27,24.27,0,0,1-1.37-9v-20.8h4.77v20.79a20.27,20.27,0,0,0,.88,6.92,6.53,6.53,0,0,0,3,3.43,10.35,10.35,0,0,0,5.17,1.2q5.24,0,7.46-2.38c1.49-1.59,2.23-4.64,2.23-9.17Z" transform="translate(-95.85 -147.09)" fill="#fff"/>
  <path d="M632.68,399.34v-4.41l18.44-23.08c1.33-1.63,2.57-3.06,3.75-4.31H634.79v-4.22h25.76v4.22l-20.23,25-2.16,2.58h23v4.23Z" transform="translate(-95.85 -147.09)" fill="#fff"/>
  <rect x="5.05" y="134.67" width="5.81" height="20.21" fill="#fff"/>
  <polygon points="22.36 134.67 27.77 134.67 36.38 145.35 36.38 134.67 42.08 134.67 42.08 154.88 36.99 154.88 28.06 143.8 28.06 154.88 22.36 154.88 22.36 134.67" fill="#fff"/>
  <path d="M158,297a6.34,6.34,0,0,0,4.19-1.33,4.67,4.67,0,0,0,1.59-3.79v-.06a4.66,4.66,0,0,0-1.59-3.76,6.24,6.24,0,0,0-4.19-1.35h-2.36V297Zm-8.15-15.25h8.05a15.71,15.71,0,0,1,5,.73,10.79,10.79,0,0,1,3.7,2.07,8.74,8.74,0,0,1,2.29,3.16,10,10,0,0,1,.79,4v.06a10,10,0,0,1-.8,4.05,9.32,9.32,0,0,1-2.33,3.23,10.7,10.7,0,0,1-3.74,2.11,15.4,15.4,0,0,1-5,.77h-7.93Z" transform="translate(-95.85 -147.09)" fill="#fff"/>
  <path d="M188.37,302.35a13.93,13.93,0,0,1-4-.55,7.8,7.8,0,0,1-3-1.7,7.33,7.33,0,0,1-1.92-2.88,11.44,11.44,0,0,1-.67-4.12V281.76h5.9V293a4.44,4.44,0,0,0,1,3.25,3.72,3.72,0,0,0,2.78,1.05,3.79,3.79,0,0,0,2.78-1,4.21,4.21,0,0,0,1-3.14V281.76h5.91V293a11.63,11.63,0,0,1-.7,4.23,7.61,7.61,0,0,1-2,2.91,7.92,7.92,0,0,1-3.07,1.7,14,14,0,0,1-4,.55" transform="translate(-95.85 -147.09)" fill="#fff"/>
  <path d="M217.21,302.32a16.66,16.66,0,0,1-5.32-.85,13,13,0,0,1-4.46-2.52l3.22-3.74a10.8,10.8,0,0,0,6.77,2.43,3.55,3.55,0,0,0,1.77-.36,1.13,1.13,0,0,0,.62-1v-.06a1,1,0,0,0-.16-.56,1.34,1.34,0,0,0-.55-.48,6.38,6.38,0,0,0-1.07-.45c-.45-.14-1-.29-1.74-.44-1.12-.25-2.15-.53-3.1-.83a9.24,9.24,0,0,1-2.49-1.15,5.16,5.16,0,0,1-1.67-1.75,5.06,5.06,0,0,1-.62-2.62v-.05a6.13,6.13,0,0,1,.55-2.59,5.71,5.71,0,0,1,1.61-2,7.73,7.73,0,0,1,2.55-1.34,11,11,0,0,1,3.37-.48,15.6,15.6,0,0,1,4.79.68,12.28,12.28,0,0,1,3.8,2l-2.89,4a11.28,11.28,0,0,0-2.94-1.48,9,9,0,0,0-2.91-.51,2.68,2.68,0,0,0-1.56.38,1.09,1.09,0,0,0-.52.92v.05a1.09,1.09,0,0,0,.16.61,1.57,1.57,0,0,0,.57.48,7.68,7.68,0,0,0,1.1.43c.47.14,1.06.29,1.78.44a25.28,25.28,0,0,1,3.23.89,9.57,9.57,0,0,1,2.46,1.22,4.84,4.84,0,0,1,1.55,1.74,5.14,5.14,0,0,1,.54,2.44v.05a5.82,5.82,0,0,1-2.33,4.83,7.81,7.81,0,0,1-2.65,1.3,12.44,12.44,0,0,1-3.46.45" transform="translate(-95.85 -147.09)" fill="#fff"/>
  <polygon points="144.14 139.58 137.88 139.58 137.88 134.67 156.19 134.67 156.19 139.58 149.93 139.58 149.93 154.88 144.14 154.88 144.14 139.58" fill="#fff"/>
  <path d="M270,291.46a3.51,3.51,0,0,0,2.29-.65,2.13,2.13,0,0,0,.81-1.75V289a2.06,2.06,0,0,0-.84-1.81,3.92,3.92,0,0,0-2.29-.59h-3.79v4.85Zm-9.61-9.7h9.87a12.77,12.77,0,0,1,4.09.57,7.1,7.1,0,0,1,2.71,1.62,6.14,6.14,0,0,1,1.86,4.71v0a6.2,6.2,0,0,1-1.17,3.88,7.32,7.32,0,0,1-3.13,2.34l5,7h-6.68l-4.2-6.12h-2.54V302h-5.79Z" transform="translate(-95.85 -147.09)" fill="#fff"/>
  <rect x="193.64" y="134.67" width="5.81" height="20.21" fill="#fff"/>
  <path d="M317.15,294l-2.32-5.75L312.47,294Zm-5.07-12.42h5.58L326.55,302h-6.21l-1.52-3.61h-8.05L309.28,302h-6.09Z" transform="translate(-95.85 -147.09)" fill="#fff"/>
  <polygon points="236.66 134.67 242.44 134.67 242.44 149.97 252.55 149.97 252.55 154.88 236.66 154.88 236.66 134.67" fill="#fff"/>
  <rect x="225.7" y="8.55" width="27.02" height="27" fill="#fff"/>
  <path d="M321.55,189.4v27.83h-36v-27.9h-27v48.08c-4.44-5.74-29.51-35.24-32-38.13s-6.39-6.72-10-8.12a33.42,33.42,0,0,0-11.81-1.83H186.52v83.38h27V225.84c4.65,5.33,32.24,36.1,32.24,36.1a31.64,31.64,0,0,0,13.13,9.27,28.15,28.15,0,0,0,10.39,1.5h16.29V243.45h36v29.26h26.88V189.4Zm-225.7,42c0,41,37.11,41.21,51.08,41.3l32.77,0V246.48H140.21a13.75,13.75,0,0,1-9.76-3.95,14.77,14.77,0,0,1-4-10.21v-2.6a13.31,13.31,0,0,1,4-9.51,13.62,13.62,0,0,1,9.62-4H179.7V189.33h-33C132.81,189.43,95.85,190.39,95.85,231.39Z" transform="translate(-95.85 -147.09)" fill="#fff"/>
  <path d="M424.45,250.91a7.06,7.06,0,0,0-7.14-5.72c-6.45,0-8.88,5.49-8.88,11.21,0,5.44,2.43,10.93,8.88,10.93,4.39,0,6.86-3,7.41-7.32h7c-.74,8.14-6.36,13.36-14.37,13.36-10.11,0-16.06-7.55-16.06-17,0-9.7,5.95-17.25,16.06-17.25,7.18,0,13.22,4.21,14.09,11.76Z" transform="translate(-95.85 -147.09)" fill="#fff"/>
  <path d="M444.81,260h8.46l-4.12-12h-.09Zm.68-20h7.37l12.21,32.66h-7.45l-2.48-7.27H442.93l-2.56,7.27H433.1Z" transform="translate(-95.85 -147.09)" fill="#fff"/>
  <path d="M475.09,255.3h5.59c3.33,0,6.31-.73,6.31-4.9s-3-4.89-6.31-4.89h-5.59Zm-7.18-15.37h14.73c8.14,0,11.3,5.17,11.3,10.47s-3.16,10.48-11.3,10.48h-7.55v11.71h-7.18Z" transform="translate(-95.85 -147.09)" fill="#fff"/>
  <rect x="402.58" y="92.84" width="7.18" height="32.66" fill="#fff"/>
  <polygon points="423.3 98.88 413.51 98.88 413.51 92.84 440.27 92.84 440.27 98.88 430.48 98.88 430.48 125.51 423.3 125.51 423.3 98.88" fill="#fff"/>
  <path d="M544.72,260h8.47l-4.12-12H549Zm.69-20h7.37L565,272.59h-7.45l-2.48-7.27H542.85l-2.56,7.27H533Z" transform="translate(-95.85 -147.09)" fill="#fff"/>
  <polygon points="471.98 92.84 479.16 92.84 479.16 119.47 495.08 119.47 495.08 125.5 471.98 125.5 471.98 92.84" fill="#fff"/>
  <rect x="278.82" width="1.82" height="161.94" fill="#fff"/>
  <path d="M142,375.16v23.36c0,1.07.33,1.4,1.4,1.4,9.41,0,20.55,1.81,20.55-7.94,0-3.34-2.53-4.48-4.67-5.61,1.23-1.67,3.27-1.84,3.27-5.6,0-8.77-11.15-7-19.15-7-1.07,0-1.4.32-1.4,1.4m12.14,9.34h-7V378h5.6C159.67,378,158.84,384.5,154.13,384.5Zm-1.86,11.21h-5.14v-7h7c2.41,0,5.14.92,5.14,3.27C159.27,395.22,155.59,395.71,152.27,395.71Z" transform="translate(-95.85 -147.09)" fill="#fff" fill-rule="evenodd"/>
  <path d="M99.48,385.44v2.8c0,8.45,12,17.24,22.64,8.62,8.46-6.84,4.63-23.57-9.09-23.57-7.18,0-13.55,5.81-13.55,12.15m14,10.27c-12.71,0-10.45-17.75-1.87-17.75,6.13,0,9.81,2.52,9.81,9.35C121.44,391.76,118,395.71,113.5,395.71Z" transform="translate(-95.85 -147.09)" fill="#fff" fill-rule="evenodd"/>
  <path d="M397.5,382.63V380.3h-4.67v19.62h4.67c0-7-1.44-15.88,4.2-15.88,5.27,0,3.74,8.48,3.74,15.88h4.67c0-5.69-1.39-15.88,3.74-15.88,5.74,0,4.2,7.58,4.2,15.88h4.67c0-12,2.13-20.09-7.47-20.09-3.17,0-4.21,1.55-6.07,2.8-2.95-2-1.16-2.8-6.54-2.8-2.52,0-3.62,1.79-5.14,2.8" transform="translate(-95.85 -147.09)" fill="#fff" fill-rule="evenodd"/>
  <path d="M281.66,382.63c-3.19-2.13-1.82-2.8-7-2.8-5,0-8.41,5.27-8.41,7.94,0,4-.38,6.54,2.46,9.69,1,1.08,4.18,2.92,5.95,2.92,4.36,0,4.6-1.65,7-3.27v2.81h4.67v-27.1h-4.67Zm-10.75,7.48c0-8.22,10.75-8.22,10.75,0C281.66,398.18,270.91,398.06,270.91,390.11Z" transform="translate(-95.85 -147.09)" fill="#fff" fill-rule="evenodd"/>
  <path d="M323.23,388.71c0,3.56-.2,5.81,2.46,8.75,1,1.08,4.18,2.92,5.95,2.92,4.35,0,4.6-1.65,7-3.27v8.41h4.68V380.3h-4.68v2.33c-3.18-2.13-1.81-2.8-7-2.8-4.62,0-8.41,4.29-8.41,8.88m4.67,1.4c0-8.67,10.74-7.37,10.74-.94C338.64,399,327.9,397.64,327.9,390.11Z" transform="translate(-95.85 -147.09)" fill="#fff" fill-rule="evenodd"/>
  <path d="M168.61,381.23c0,2.11.53,2.47.94,4.21,3-1.45,10.14-3.21,10.28,2.8-17.21-4-15.77,12.14-6.08,12.14,2.69,0,4.33-1.4,6.08-2.33v1.87h4.67c0-12.36,2.16-20.09-9.35-20.09-2.84,0-4.27.88-6.54,1.4m6.54,15.42c-4.27,0-6.52-5.61,1.41-5.61a26.24,26.24,0,0,1,3.27.47C179.83,394.3,179.06,396.65,175.15,396.65Z" transform="translate(-95.85 -147.09)" fill="#fff" fill-rule="evenodd"/>
  <path d="M231.21,390.11c0,13.25,21,13.29,21,.93,0-3.59.19-5.33-3.13-8.54-6.14-5.94-17.89-1.61-17.89,7.61M242,396.18c-7.52,0-7.23-12.14-.93-12.14C250.61,384,248.75,396.18,242,396.18Z" transform="translate(-95.85 -147.09)" fill="#fff" fill-rule="evenodd"/>
  <path d="M348,389.64c0,4.54,1.21,10.74,6.54,10.74,4,0,4.34-1.33,6.53-2.8v2.34c6.94,0,5.14,2.95,5.14-19.62h-5.14c0,12.31,1.53,15.41-5.13,15.41-4.09,0-2.81-10.33-2.81-15.41H348Z" transform="translate(-95.85 -147.09)" fill="#fff" fill-rule="evenodd"/>
  <path d="M369.94,389.17c0,6.76,3.58,11.21,10.28,11.21a9.59,9.59,0,0,0,7.94-4.2l-2.8-1.87c-3.28,1.73-1.78,1.87-6.08,1.87-2.93,0-4.1-2.24-4.67-4.67h14.48c0-16.89-19.15-13.65-19.15-2.34m9.81-5.6a7.32,7.32,0,0,1,3.16,1.51c1,.95,1,1.82,1,3.63h-9.34C374.85,385.85,376.66,383.57,379.75,383.57Z" transform="translate(-95.85 -147.09)" fill="#fff" fill-rule="evenodd"/>
  <path d="M290.53,388.71c0,3.86-.33,5.64,3.13,9,4.31,4.2,11.85,3.07,14.62-1.07l-2.23-2.44c-3.2,1-.23,2-6.18,2-2.82,0-4.44-2-4.67-4.67h8.41c4.22,0,6.37,1.1,5.81-2.43-2.3-14.57-18.89-10-18.89-.37m9.81-5.14c2.25,0,4.14,2.07,4.2,5.14H295.2C295.45,385.7,297.15,383.57,300.34,383.57Z" transform="translate(-95.85 -147.09)" fill="#fff" fill-rule="evenodd"/>
  <path d="M193.84,382.63V380.3h-4.67v19.62h4.67c0-7.22-1.39-15.88,4.67-15.88,5.25,0,3.74,8.91,3.74,15.88h4.67c0-13.11,2.1-20.09-7.94-20.09-2.52,0-3.62,1.79-5.14,2.8" transform="translate(-95.85 -147.09)" fill="#fff" fill-rule="evenodd"/>
  <path d="M210.65,389.64c0,11.83,14,13.28,18.22,7l-2.69-2.91c-1.94,1.34-2.42,2.44-5.25,2.44-6.54,0-8.41-12.14.94-12.14,2.34,0,2.71,1.33,4.2,2.33l2.9-3.18c-4.56-3.12-2.72-3.36-9-3.36-5,0-9.35,4.92-9.35,9.81" transform="translate(-95.85 -147.09)" fill="#fff" fill-rule="evenodd"/>
  <path d="M664.12,398.34c0,1.07.33,1.4,1.4,1.4h2.34v-4.67h-3.74Z" transform="translate(-95.85 -147.09)" fill="#fff" fill-rule="evenodd"/>
</svg>
