<svg id="logoUaify_vetor-ajustada" xmlns="http://www.w3.org/2000/svg" width="128.792" height="59.6" viewBox="0 0 128.792 59.6">
  <path id="Path_9" data-name="Path 9" d="M8.5,19.9H.3V41.641c0,7.82,6.446,9.475,10.426,9.5a17.471,17.471,0,0,0,2.818-.117,8.32,8.32,0,0,0,6.434-4.744c-.106,1.385.587,3.663,1.609,4.086H28.5a32.226,32.226,0,0,1-.951-7.421V19.9H19.286v18.61a7.766,7.766,0,0,1-3.9,4.755c-1.151.552-4.544,1.315-6.305-1.186A4.583,4.583,0,0,1,8.5,39.657V19.9m30.81,5.718a19.064,19.064,0,0,1,3.17-.294,6.274,6.274,0,0,1,4.8,1.82,6.965,6.965,0,0,1,1.667,4.884v8.912a15.164,15.164,0,0,1-3.264,2.982,6.048,6.048,0,0,1-3.405,1.151,3.719,3.719,0,0,1-2.63-1.033,3.407,3.407,0,0,1-1.08-2.56,3.786,3.786,0,0,1,1.01-2.607A5.3,5.3,0,0,1,42.8,37.4a4.023,4.023,0,0,0,2.818-1.89,9.542,9.542,0,0,0,1.209-3.6,37.694,37.694,0,0,0-7.8,1.315,16.44,16.44,0,0,0-4.943,2.36,7.585,7.585,0,0,0-2.618,3.1,8.35,8.35,0,0,0-.775,3.546,8.871,8.871,0,0,0,.634,3.346,8.071,8.071,0,0,0,1.82,2.841,9.171,9.171,0,0,0,2.877,1.973,9.375,9.375,0,0,0,3.839.751,12.108,12.108,0,0,0,4.227-.751,14.855,14.855,0,0,0,4.661-3.147l.7-1,.2,1.174a12.068,12.068,0,0,0,.822,1.656,3.843,3.843,0,0,0,1.339,1.268h6.07a26.142,26.142,0,0,1-.763-3.91,31.825,31.825,0,0,1-.2-3.511V32.037q0-6.235-3.393-9.5-3.364-3.293-9.675-3.288a26.881,26.881,0,0,0-4.826.517A26.058,26.058,0,0,0,33.587,21.5l2.02,5.166a21.278,21.278,0,0,1,3.7-1.057M69.1,19.9H60.851V50.365H69.1V19.9m.7-8.841a4.855,4.855,0,0,0-1.385-3.511A4.632,4.632,0,0,0,64.96,6.1a4.564,4.564,0,0,0-3.452,1.444,4.845,4.845,0,0,0-1.374,3.511,4.891,4.891,0,0,0,8.3,3.452,4.727,4.727,0,0,0,1.374-3.452Z" transform="translate(-0.265 -5.384)" fill="#fff"/>
  <path id="Path_10" data-name="Path 10" d="M92.382,14.512a4.612,4.612,0,0,0-2.266.54,7.109,7.109,0,0,0-2.841,3.288,19.571,19.571,0,0,0-.787,2h8.489V14.512H92.382M93.11.387A19.725,19.725,0,0,0,89.587,0a14.806,14.806,0,0,0-5.331.916A11.594,11.594,0,0,0,80.206,3.5a11.011,11.011,0,0,0-2.583,4.074,14.454,14.454,0,0,0-.928,5.3v1.644l-4.9,1.174v4.661h4.9V44.982H84.48V12.869a7.4,7.4,0,0,1,1.55-4.92,5.507,5.507,0,0,1,4.462-1.867,12.81,12.81,0,0,1,2.219.223c.81.153,1.773.4,2.9.716l1.832-5.26A21.862,21.862,0,0,0,93.11.387m35.682,14.137h-8.43L111.65,42.8c-.6,1.761-1.151,3.311-1.644,4.661a15.038,15.038,0,0,1-1.609,3.37,6.6,6.6,0,0,1-2.031,2.043,4.269,4.269,0,0,1-1.62.622l-.317.059-.528.035H0V59.6H104.006c.153,0,.294,0,.446-.012a1.442,1.442,0,0,0,.317-.023,10.7,10.7,0,0,0,4.039-.951,10.233,10.233,0,0,0,3.6-2.841,22.408,22.408,0,0,0,2.83-4.755c.881-1.89,1.808-4.133,2.783-6.7l10.767-29.788M110.757,32.618a15.47,15.47,0,0,0-.658-4.2l-4.121-13.89h-8.83l10.967,29.694A15.435,15.435,0,0,0,109.5,41.1a28.879,28.879,0,0,0,.975-4.1A23.941,23.941,0,0,0,110.757,32.618Z" fill="#fff"/>
</svg>
